# xmcd CD database file
#
# Track frame offsets:
#	150
#	34496
#	51421
#	70664
#	88192
#	106449
#
# Disc length: 2732 seconds
#
# Revision: 0
# Processed by: cddbd v1.5.1PL0 Copyright (c) Steve Scherf et al.
# Submitted via: CDex 1.50
#
DISCID=530aaa06
DTITLE=Cliffort Brown - Max Roach Quintet - Live 1955-56 [CD2]
DYEAR=2004
DGENRE=Jazz
TTITLE0=You Go To My Head
TTITLE1=One For My Baby
TTITLE2=Someone To Watch Over Me
TTITLE3=What's New
TTITLE4=These Foolish Things
TTITLE5=I Get A Kick Out Of You
EXTD=YEAR: 2004
EXTT0=
EXTT1=
EXTT2=
EXTT3=
EXTT4=
EXTT5=
PLAYORDER=
